<svg id="Слой_1" data-name="Слой 1" xmlns="http://www.w3.org/2000/svg" viewBox="0 0 203.05 263.76"><defs><style>.cls-1{font-size:65.08px;}.cls-1,.cls-3{font-family:Moderan;}.cls-2{font-family:Accuratist;}.cls-3{font-size:126.99px;}</style></defs><title>logo</title><text class="cls-1" transform="translate(0 138.11)">LET<tspan class="cls-2" x="82.59" y="0">’</tspan><tspan x="94.96" y="0">S GO</tspan></text><text class="cls-3" transform="translate(0 227.69)">RIDE</text><path d="M299.86,99.26,192.54,73.06a4.5,4.5,0,0,0-3.43.46l-79.32,43.16a4.59,4.59,0,0,0-2.33,4v23.12a4.67,4.67,0,0,0,9.33,0V123.46l75.28-41,101.57,24.82-4.2,36.07a4.63,4.63,0,0,0,4,5.08H294a4.68,4.68,0,0,0,4.66-4.16l4.67-40.07A4.22,4.22,0,0,0,299.86,99.26Z" transform="translate(-106.73 -72.9)"/><path d="M227.22,139.19H169.05a20,20,0,1,0,0,9.24h58.17a4.62,4.62,0,1,0,0-9.24ZM149.45,154.6a10.79,10.79,0,1,1,10.89-10.79A10.78,10.78,0,0,1,149.45,154.6Z" transform="translate(-106.73 -72.9)"/><path d="M261.44,123.77a20,20,0,1,0,20.22,20A20.09,20.09,0,0,0,261.44,123.77Zm0,30.83a10.79,10.79,0,1,1,10.89-10.79A10.77,10.77,0,0,1,261.44,154.6Z" transform="translate(-106.73 -72.9)"/></svg>