<?xml version="1.0" encoding="utf-8"?>
<!-- Generator: Adobe Illustrator 24.0.2, SVG Export Plug-In . SVG Version: 6.00 Build 0)  -->
<svg version="1.1" id="Слой_1" xmlns="http://www.w3.org/2000/svg" xmlns:xlink="http://www.w3.org/1999/xlink" x="0px" y="0px"
	 viewBox="0 0 203.1 263.8" style="enable-background:new 0 0 203.1 263.8;" xml:space="preserve">
<style type="text/css">
	.st0{fill:#FFFFFF;}
	.st1{font-family:'Moderan';}
	.st2{font-size:75.6016px;}
	.st3{font-family:'Accuratist';}
	.st4{font-size:147.5206px;}
</style>
<title>logo-white</title>
<text transform="matrix(0.8929 0 0 1 -0.7207 160.4375)" class="st0 st1 st2">LET</text>
<text transform="matrix(0.8929 0 0 1 84.9443 160.4375)" class="st0 st3 st2">’</text>
<text transform="matrix(0.8929 0 0 1 97.7744 160.4375)" class="st0 st1 st2">S GO</text>
<text transform="matrix(0.8929 0 0 1 -0.7207 264.5)" class="st0 st1 st4">RIDE</text>
<path class="st0" d="M199.6,30.6L88.3,0.2c-1.2-0.4-2.5-0.2-3.6,0.5L2.5,50.9C1,51.8,0,53.6,0,55.5v26.9c0.1,3,2.4,5.3,5.1,5.2
	c2.5-0.1,4.5-2.4,4.6-5.2V58.7l78.1-47.6l105.4,28.8l-4.4,41.9c-0.3,2.9,1.6,5.5,4.1,5.9h0.6c2.5,0,4.6-2.1,4.8-4.8l4.8-46.5
	c0.4-2.7-1.1-5.2-3.5-5.7C199.7,30.6,199.6,30.6,199.6,30.6z"/>
<path class="st0" d="M124.3,77H63.9c-2.6-12.5-13.8-20.2-25-17.2c-11.1,3-18,15.5-15.4,28s13.8,20.2,25,17.2
	c7.6-2,13.6-8.7,15.4-17.2h60.3c2.6,0,4.8-2.4,4.8-5.4S126.9,77,124.3,77z M43.6,94.9c-6.2-0.1-11.1-5.7-11.1-12.7
	c0.1-6.9,5.1-12.5,11.3-12.4c6.1,0.1,11.1,5.7,11.1,12.5c0,6.9-5,12.5-11.2,12.5C43.7,94.9,43.6,94.9,43.6,94.9z"/>
<path class="st0" d="M159.7,59.1c-11.5,0.1-20.6,10.7-20.5,23.5s9.5,23.1,21,23c11.4-0.1,20.5-10.5,20.5-23.2
	C180.7,69.4,171.3,59,159.7,59.1C159.8,59.1,159.8,59.1,159.7,59.1z M159.7,94.9c-6.2-0.1-11.1-5.7-11.1-12.7
	c0.1-6.9,5.1-12.5,11.3-12.4c6.1,0.1,11.1,5.7,11.1,12.5c0,6.9-5,12.5-11.1,12.5C159.8,94.9,159.8,94.9,159.7,94.9L159.7,94.9z"/>
</svg>
