<svg width="43" height="41" viewBox="0 0 43 41" fill="none" xmlns="http://www.w3.org/2000/svg">
<g clip-path="url(#clip0)">
<path fill-rule="evenodd" clip-rule="evenodd" d="M21.5 2.56254C20.4412 2.56254 19.3928 2.76138 18.4146 3.14772C17.4364 3.53405 16.5476 4.10031 15.799 4.81416C15.0503 5.52801 14.4564 6.37547 14.0512 7.30816C13.646 8.24085 13.4375 9.2405 13.4375 10.25C13.4375 11.2596 13.646 12.2592 14.0512 13.1919C14.4564 14.1246 15.0503 14.9721 15.799 15.6859C16.5476 16.3998 17.4364 16.966 18.4146 17.3524C19.3928 17.7387 20.4412 17.9375 21.5 17.9375C23.6383 17.9375 25.689 17.1276 27.201 15.6859C28.7131 14.2442 29.5625 12.2889 29.5625 10.25C29.5625 8.21119 28.7131 6.25584 27.201 4.81416C25.689 3.37247 23.6383 2.56254 21.5 2.56254ZM10.75 10.25C10.7502 8.2775 11.3473 6.3469 12.4697 4.68991C13.5921 3.03292 15.1921 1.71992 17.0777 0.908465C18.9633 0.0970109 21.0545 -0.17843 23.1002 0.115192C25.1459 0.408815 27.0593 1.25903 28.6108 2.56381C30.1623 3.8686 31.286 5.57253 31.8471 7.47115C32.4082 9.36977 32.3827 11.3824 31.7739 13.2676C31.1651 15.1528 29.9986 16.8304 28.4146 18.0992C26.8306 19.368 24.8963 20.174 22.8438 20.4206V34.5938C22.8438 34.9336 22.7022 35.2595 22.4502 35.4998C22.1982 35.7401 21.8564 35.875 21.5 35.875C21.1436 35.875 20.8018 35.7401 20.5498 35.4998C20.2978 35.2595 20.1562 34.9336 20.1562 34.5938V20.4232C17.5573 20.111 15.1674 18.9047 13.4354 17.031C11.7034 15.1573 10.7484 12.7451 10.75 10.2475V10.25ZM17.4499 32.2209C17.5082 32.5559 17.4246 32.8993 17.2175 33.1756C17.0104 33.4519 16.6967 33.6385 16.3454 33.6944C14.4319 33.9967 12.9054 34.4503 11.8976 34.9577C11.5273 35.1274 11.1909 35.3571 10.9032 35.6367C10.8382 35.7043 10.7863 35.7824 10.75 35.8674V35.875L10.7554 35.8955C10.7659 35.9253 10.7804 35.9537 10.7984 35.9801C10.9044 36.1284 11.0362 36.2584 11.1881 36.3645C11.6315 36.6976 12.3571 37.0564 13.373 37.3767C15.3913 38.0173 18.2642 38.4375 21.5 38.4375C24.7358 38.4375 27.6087 38.0199 29.627 37.3767C30.6429 37.0538 31.3685 36.6976 31.8119 36.3645C31.9647 36.2585 32.0974 36.1285 32.2043 35.9801C32.2213 35.9536 32.2349 35.9252 32.2446 35.8955L32.25 35.875V35.8648C32.2137 35.7798 32.1618 35.7017 32.0968 35.6342C31.8089 35.3555 31.4725 35.1266 31.1024 34.9577C30.0919 34.4503 28.5681 33.9967 26.6546 33.6944C26.4764 33.6713 26.3048 33.6144 26.1501 33.527C25.9953 33.4395 25.8605 33.3234 25.7538 33.1854C25.647 33.0474 25.5703 32.8903 25.5284 32.7235C25.4864 32.5568 25.48 32.3837 25.5095 32.2145C25.539 32.0453 25.6039 31.8835 25.7002 31.7386C25.7965 31.5938 25.9223 31.4689 26.0702 31.3712C26.2181 31.2736 26.3851 31.2053 26.5611 31.1704C26.7372 31.1354 26.9189 31.1345 27.0954 31.1677C29.1647 31.4932 30.9976 32.0082 32.3548 32.6898C33.5937 33.3125 34.9375 34.3375 34.9375 35.875C34.9375 36.9667 34.2388 37.802 33.4755 38.3786C32.6961 38.9629 31.648 39.4369 30.4762 39.8085C28.1166 40.5593 24.9427 41 21.5 41C18.0573 41 14.8834 40.5593 12.5237 39.8085C11.352 39.4369 10.3039 38.9629 9.5245 38.3786C8.76125 37.802 8.0625 36.9667 8.0625 35.875C8.0625 34.3401 9.40625 33.3125 10.6452 32.6898C12.0024 32.0082 13.8353 31.4932 15.9046 31.1677C16.256 31.1122 16.6161 31.1919 16.9059 31.3894C17.1957 31.5868 17.3913 31.8859 17.4499 32.2209Z" fill="white"/>
</g>
<defs>
<clipPath id="clip0">
<rect width="43" height="41" fill="white"/>
</clipPath>
</defs>
</svg>
