<svg width="43" height="43" viewBox="0 0 43 43" fill="none" xmlns="http://www.w3.org/2000/svg">
<path d="M21.5 14.3333C19.5993 14.3333 17.7765 15.0884 16.4324 16.4324C15.0884 17.7764 14.3334 19.5993 14.3334 21.5C14.3334 23.4007 15.0884 25.2236 16.4324 26.5676C17.7765 27.9116 19.5993 28.6667 21.5 28.6667C23.4008 28.6667 25.2236 27.9116 26.5676 26.5676C27.9117 25.2236 28.6667 23.4007 28.6667 21.5C28.6667 19.5993 27.9117 17.7764 26.5676 16.4324C25.2236 15.0884 23.4008 14.3333 21.5 14.3333Z" fill="white"/>
<path fill-rule="evenodd" clip-rule="evenodd" d="M12.9 0C9.47871 0 6.19754 1.3591 3.77832 3.77832C1.3591 6.19754 0 9.47871 0 12.9L0 30.1C0 33.5213 1.3591 36.8025 3.77832 39.2217C6.19754 41.6409 9.47871 43 12.9 43H30.1C33.5213 43 36.8025 41.6409 39.2217 39.2217C41.6409 36.8025 43 33.5213 43 30.1V12.9C43 9.47871 41.6409 6.19754 39.2217 3.77832C36.8025 1.3591 33.5213 0 30.1 0L12.9 0ZM11.4667 21.5C11.4667 18.839 12.5237 16.287 14.4054 14.4054C16.287 12.5237 18.839 11.4667 21.5 11.4667C24.161 11.4667 26.713 12.5237 28.5946 14.4054C30.4763 16.287 31.5333 18.839 31.5333 21.5C31.5333 24.161 30.4763 26.713 28.5946 28.5946C26.713 30.4763 24.161 31.5333 21.5 31.5333C18.839 31.5333 16.287 30.4763 14.4054 28.5946C12.5237 26.713 11.4667 24.161 11.4667 21.5ZM31.5333 11.4667H34.4V8.6H31.5333V11.4667Z" fill="white"/>
</svg>
