<svg width="43" height="43" viewBox="0 0 43 43" fill="none" xmlns="http://www.w3.org/2000/svg">
<path d="M29.6807 39.4149H29.7309C30.6769 39.4149 31.571 39.0422 32.2482 38.365L37.1072 33.506C37.2737 33.3397 37.4059 33.1423 37.496 32.9249C37.5861 32.7075 37.6325 32.4745 37.6325 32.2392C37.6325 32.0039 37.5861 31.7709 37.496 31.5536C37.4059 31.3362 37.2737 31.1388 37.1072 30.9725L29.9405 23.8059C29.7743 23.6393 29.5768 23.5072 29.3595 23.4171C29.1421 23.3269 28.9091 23.2806 28.6738 23.2806C28.4385 23.2806 28.2055 23.3269 27.9882 23.4171C27.7708 23.5072 27.5734 23.6393 27.4071 23.8059L24.5512 26.6618C23.2272 26.2676 20.7565 25.3718 19.1905 23.8059C17.6246 22.24 16.7288 19.7692 16.3346 18.4452L19.1905 15.5893C19.3571 15.423 19.4892 15.2256 19.5793 15.0082C19.6695 14.7909 19.7159 14.5579 19.7159 14.3226C19.7159 14.0873 19.6695 13.8543 19.5793 13.6369C19.4892 13.4196 19.3571 13.2221 19.1905 13.0559L12.0239 5.8892C11.6813 5.5659 11.2282 5.3858 10.7572 5.3858C10.2862 5.3858 9.83298 5.5659 9.49046 5.8892L4.63325 10.7482C3.95241 11.429 3.569 12.3643 3.58333 13.3192C3.62454 15.8706 4.3 24.7322 11.2839 31.7161C18.2678 38.7 27.1294 39.3737 29.6807 39.4149ZM10.759 9.68933L15.3922 14.3226L13.0756 16.6392C12.8648 16.8494 12.7099 17.1091 12.6251 17.3945C12.5403 17.6799 12.5282 17.982 12.59 18.2732C12.633 18.4792 13.6847 23.3651 16.6589 26.3393C19.6331 29.3135 24.519 30.3652 24.725 30.4082C25.0162 30.4703 25.3184 30.4584 25.6039 30.3736C25.8893 30.2888 26.149 30.1337 26.359 29.9226L28.6756 27.606L33.3089 32.2392L29.7148 35.8315C27.4788 35.7939 19.8284 35.1937 13.8173 29.1809C7.78658 23.1501 7.2025 15.4728 7.16666 13.2816L10.759 9.68933ZM35.8315 19.7065H39.4149C39.4149 10.5153 32.4758 3.58333 23.272 3.58333V7.16666C30.5497 7.16666 35.8315 12.4395 35.8315 19.7065Z" fill="white"/>
<path d="M23.2899 14.3333C27.0578 14.3333 28.6649 15.9405 28.6649 19.7083H32.2482C32.2482 13.9302 29.068 10.75 23.2899 10.75V14.3333Z" fill="white"/>
</svg>
