<svg width="43" height="43" viewBox="0 0 43 43" fill="none" xmlns="http://www.w3.org/2000/svg">
<g clip-path="url(#clip0)">
<path d="M28.0995 0H14.8999C2.85449 0 -0.000976562 2.85547 -0.000976562 14.9008V28.1005C-0.000976562 40.1459 2.85449 43.0013 14.8999 43.0013H28.0995C40.1449 43.0013 43.0004 40.1459 43.0004 28.1005V14.9008C43.0004 2.85547 40.1167 0 28.0995 0ZM34.7135 30.6751H31.5919C30.4094 30.6751 30.0453 29.7372 27.9181 27.5818C26.0705 25.7906 25.2521 25.5528 24.7966 25.5528C24.1529 25.5528 23.9702 25.7342 23.9702 26.617V29.4375C23.9702 30.1941 23.7323 30.6483 21.7301 30.6483C18.4191 30.6483 14.7453 28.6461 12.1694 24.9158C8.28459 19.4494 7.22168 15.355 7.22168 14.5085C7.22168 14.0529 7.40309 13.627 8.27787 13.627H11.4061C12.1976 13.627 12.4986 13.9911 12.8063 14.8377C14.353 19.303 16.9289 23.2146 17.9918 23.2146C18.3842 23.2146 18.5656 23.0332 18.5656 22.0321V17.4204C18.446 15.2932 17.3267 15.1105 17.3267 14.3553C17.3267 13.9911 17.6277 13.627 18.1101 13.627H23.0296C23.6947 13.627 23.9393 13.9911 23.9393 14.7745V20.9961C23.9393 21.668 24.2403 21.9058 24.4217 21.9058C24.8141 21.9058 25.15 21.668 25.877 20.9397C28.1237 18.4201 29.7335 14.5353 29.7335 14.5353C29.9431 14.0798 30.3073 13.6538 31.0988 13.6538H34.227C35.165 13.6538 35.3746 14.1363 35.165 14.8081C34.7726 16.6276 30.9442 22.0308 30.9442 22.0308C30.615 22.5763 30.4887 22.8142 30.9442 23.4229C31.2802 23.8784 32.3726 24.8231 33.0996 25.6697C34.4366 27.1881 35.4646 28.462 35.7387 29.3435C36.0465 30.2183 35.5923 30.6738 34.7094 30.6738L34.7135 30.6751Z" fill="#71AACA"/>
</g>
<defs>
<clipPath id="clip0">
<rect width="43" height="43" fill="white"/>
</clipPath>
</defs>
</svg>
